<svg xmlns="http://www.w3.org/2000/svg" viewBox="0 0 220 220" role="img" aria-labelledby="title desc">
  <title id="title">KIVIMA Kiwi Logo</title>
  <desc id="desc">Stilisiertes grünes Kiwi-Logo mit Blatt und Kernen</desc>
  <defs>
    <radialGradient id="g1" cx="50%" cy="45%" r="55%">
      <stop offset="0%" stop-color="#d9f67c"/>
      <stop offset="70%" stop-color="#84c943"/>
      <stop offset="100%" stop-color="#4f8f2f"/>
    </radialGradient>
  </defs>
  <ellipse cx="110" cy="120" rx="92" ry="82" fill="url(#g1)"/>
  <ellipse cx="110" cy="120" rx="78" ry="68" fill="#9dd857" opacity="0.9"/>
  <ellipse cx="110" cy="120" rx="52" ry="46" fill="#e8ff9f"/>
  <circle cx="110" cy="120" r="10" fill="#f7ffcf"/>

  <g fill="#3b2b16" opacity="0.85">
    <ellipse cx="110" cy="76" rx="3" ry="6"/>
    <ellipse cx="133" cy="82" rx="3" ry="6" transform="rotate(18 133 82)"/>
    <ellipse cx="150" cy="98" rx="3" ry="6" transform="rotate(38 150 98)"/>
    <ellipse cx="157" cy="120" rx="3" ry="6" transform="rotate(90 157 120)"/>
    <ellipse cx="150" cy="142" rx="3" ry="6" transform="rotate(142 150 142)"/>
    <ellipse cx="133" cy="158" rx="3" ry="6" transform="rotate(162 133 158)"/>
    <ellipse cx="110" cy="164" rx="3" ry="6"/>
    <ellipse cx="87" cy="158" rx="3" ry="6" transform="rotate(18 87 158)"/>
    <ellipse cx="70" cy="142" rx="3" ry="6" transform="rotate(38 70 142)"/>
    <ellipse cx="63" cy="120" rx="3" ry="6" transform="rotate(90 63 120)"/>
    <ellipse cx="70" cy="98" rx="3" ry="6" transform="rotate(142 70 98)"/>
    <ellipse cx="87" cy="82" rx="3" ry="6" transform="rotate(162 87 82)"/>
  </g>

  <path d="M117 34c17-20 39-23 57-13-18 8-26 20-30 33z" fill="#2f7d32"/>
  <path d="M116 42c9-16 17-23 29-29-4 12-12 24-24 35z" fill="#3f9e3f"/>
</svg>
