<svg version="1.1" viewBox="0 0 1004 579.28" xmlns="http://www.w3.org/2000/svg" xmlns:xlink="http://www.w3.org/1999/xlink" id="Ebene_1" overflow="hidden"><defs></defs><path d=" M 284.4 173.79 C 284.4 181.64 279.54 186.92 272.32 186.92 C 265.1 186.92 260.15 181.64 260.15 173.79 L 260.15 138.11 L 249.66 138.11 L 249.66 174.4 C 249.541 180.154 251.626 185.735 255.49 190 C 259.6 194.35 265.41 196.65 272.32 196.65 C 287.91 196.65 294.89 185.49 294.89 174.42 L 294.89 138.11 L 284.4 138.11 Z"/><path d=" M 349.47 196.55 L 351.89 196.55 L 351.89 138.11 L 341.48 138.11 L 341.48 173.25 L 309.71 137.11 L 309.59 136.97 L 307.18 136.97 L 307.18 195.5 L 317.76 195.5 L 317.76 160.53 L 349.35 196.41 L 349.47 196.55 Z"/><rect x="364.8" y="138.11" width="10.49" height="57.39"/><path d=" M 421.8 138.11 L 408.8 173.42 L 395.55 138.11 L 384.3 138.11 L 407.05 196.37 L 409.87 196.37 L 432.79 138.11 L 421.8 138.11 Z"/><path d=" M 476.64 186.22 L 452.28 186.22 L 452.28 170.78 L 475.24 170.78 L 475.24 161.86 L 452.28 161.86 L 452.28 147.56 L 476.64 147.56 L 476.64 138.11 L 441.79 138.11 L 441.79 195.5 L 476.64 195.5 L 476.64 186.22 Z"/><path d=" M 516.79 195.5 L 529.25 195.5 L 510.66 171.56 C 520.25 170.13 525.95 163.92 525.95 154.84 C 525.95 144.36 518.58 138.11 506.25 138.11 L 488.39 138.11 L 488.39 195.5 L 498.89 195.5 L 498.89 172.27 L 516.67 195.34 Z M 505.12 164 L 498.89 164 L 498.89 147 L 505.82 147 C 511.87 147 515.63 150.25 515.63 155.5 C 515.63 160.86 511.8 164 505.12 164 Z"/><path d=" M 556.07 187.19 C 550.47 187.19 545.29 183.58 540.53 179.68 L 540.19 179.4 L 534.94 187 L 535.2 187.24 C 542.1 193.39 548.95 196.51 555.55 196.51 C 566.81 196.51 574.37 189.78 574.37 179.77 C 574.37 170.86 567.27 166.28 561.93 163.61 L 555.29 160.29 C 549.71 157.45 547.92 155.52 547.92 152.35 C 547.92 148.35 551.76 146.2 555.55 146.2 C 559.34 146.2 563.39 147.94 567.69 151.36 L 568.03 151.63 L 573.03 144.33 L 572.75 144.1 C 568.6 140.6 563.32 137.02 555.65 137.02 C 544.48 137.02 537.26 143.28 537.26 152.96 C 537.26 162.64 545.02 167.18 550.84 169.83 L 556.51 172.54 C 561.01 174.83 563.8 176.97 563.8 180.54 C 563.79 184.72 560.9 187.19 556.07 187.19 Z"/><rect x="584" y="138.11" width="10.49" height="57.39"/><path d=" M 621.7 195.5 L 632.11 195.5 L 632.11 147.56 L 648.26 147.56 L 648.26 138.11 L 605.46 138.11 L 605.46 147.56 L 621.7 147.56 L 621.7 195.5 Z"/><path d=" M 660.87 132.54 C 664.565 132.54 667.56 129.545 667.56 125.85 C 667.56 122.155 664.565 119.16 660.87 119.16 C 657.175 119.16 654.18 122.155 654.18 125.85 C 654.096 129.461 656.956 132.456 660.566 132.54 C 660.668 132.542 660.769 132.542 660.87 132.54 Z"/><path d=" M 679.9 132.54 C 683.55 132.579 686.541 129.651 686.58 126.001 C 686.581 125.951 686.581 125.9 686.58 125.85 C 686.58 122.159 683.591 119.166 679.9 119.16 C 676.25 119.116 673.254 122.039 673.21 125.689 C 673.209 125.743 673.209 125.796 673.21 125.85 C 673.126 129.461 675.986 132.456 679.596 132.54 C 679.698 132.542 679.799 132.542 679.9 132.54 Z"/><path d=" M 671.78 137.23 L 668.89 137.23 L 645 195.5 L 655.83 195.5 L 659.83 185.19 L 681 185.19 L 685.19 195.5 L 696 195.5 L 671.85 137.5 Z M 677.56 176.44 L 663.2 176.44 L 670.3 158.37 Z"/><path d=" M 692.77 137.95 L 692.77 147.4 L 709.01 147.4 L 709.01 195.34 L 719.41 195.34 L 719.41 147.4 L 735.56 147.4 L 735.56 137.95 L 692.77 137.95 Z"/><path d=" M 279.61 242.17 C 284.123 239.641 286.941 234.893 287 229.72 C 287 220.08 279.36 214.33 266.57 214.33 L 249.66 214.33 L 249.66 271.58 L 268 271.58 C 281.17 271.58 289 265.28 289 254.72 C 289 249 285.53 244.32 279.61 242.17 Z M 260.13 238.64 L 260.13 223.06 L 266.86 223.06 C 272.48 223.06 276.56 226.19 276.56 230.5 C 276.56 234.43 274.01 238.64 266.86 238.64 Z M 268.52 263.11 L 260.13 263.11 L 260.13 246.85 L 269.3 246.85 C 275.04 246.85 278.74 249.9 278.74 254.63 C 278.74 260 275 263.11 268.52 263.11 Z"/><rect x="298.19" y="214.33" width="10.47" height="57.25"/><path d=" M 320.58 271.58 L 355.35 271.58 L 355.35 262.33 L 331.06 262.33 L 331.06 246.93 L 353.96 246.93 L 353.96 238.03 L 331.06 238.03 L 331.06 223.76 L 355.35 223.76 L 355.35 214.33 L 320.58 214.33 L 320.58 271.58 Z"/><path d=" M 375.58 214.33 L 365.11 214.33 L 365.11 271.58 L 399.96 271.58 L 399.96 261.89 L 375.58 261.89 L 375.58 214.33 Z"/><path d=" M 410.36 271.58 L 445.12 271.58 L 445.12 262.33 L 420.83 262.33 L 420.83 246.93 L 443.73 246.93 L 443.73 238.03 L 420.83 238.03 L 420.83 223.76 L 445.12 223.76 L 445.12 214.33 L 410.36 214.33 L 410.36 271.58 Z"/><path d=" M 457 271.58 L 467.47 271.58 L 467.47 248.5 L 488.55 248.5 L 488.55 239.85 L 467.47 239.85 L 467.47 223.94 L 490.11 223.94 L 490.11 214.33 L 457 214.33 L 457 271.58 Z"/><path d=" M 501.05 271.58 L 535.81 271.58 L 535.81 262.33 L 511.52 262.33 L 511.52 246.93 L 534.42 246.93 L 534.42 238.03 L 511.52 238.03 L 511.52 223.76 L 535.81 223.76 L 535.81 214.33 L 501.05 214.33 L 501.05 271.58 Z"/><path d=" M 557.65 214.33 L 547.18 214.33 L 547.18 271.58 L 582.03 271.58 L 582.03 261.89 L 557.65 261.89 L 557.65 214.33 Z"/><path d=" M 612 214.33 L 593.66 214.33 L 593.66 271.58 L 611.56 271.58 C 634.74 271.58 642.96 255.98 642.96 242.58 C 643 226 630.23 214.33 612 214.33 Z M 632.06 242.61 C 632.06 255.31 624.74 262.61 612 262.61 L 604.13 262.61 L 604.13 223.5 L 612.26 223.5 C 622.11 223.5 632.06 229.41 632.06 242.61 Z"/><path d=" M 155.91 138.08 L 155.91 101.63 L 22.32 101.63 L 22.32 271.71 L 192.4 271.71 L 192.4 138.08 L 155.91 138.08 Z"/><path d=" M 250.15 328.71 L 270.31 328.71 L 270.31 333.19 L 254.91 333.19 L 254.91 345.34 L 269.3 345.34 L 269.3 349.34 L 254.91 349.34 L 254.91 365 L 250.15 365 Z"/><path d=" M 293.72 361.41 C 291.725 364.007 288.644 365.538 285.37 365.56 C 278.43 365.56 273.37 360.63 273.37 351.78 C 273.37 343.94 278.37 338.34 285.37 338.34 C 288.535 338.272 291.568 339.604 293.66 341.98 L 293.66 338.79 L 298.36 338.79 L 298.36 365 L 293.66 365 Z M 293.88 351.95 C 293.88 344.84 289.88 342.32 285.82 342.32 C 280.95 342.32 278.09 346.41 278.09 351.95 C 278.09 357.66 281.09 361.47 285.99 361.47 C 290.89 361.47 293.88 357.38 293.88 352 Z"/><path d=" M 309.84 351.84 L 309.84 365 L 305.14 365 L 305.14 324.68 L 309.84 324.68 L 309.84 349.37 L 319.84 338.79 L 325.49 338.79 L 314.6 350.1 L 327.88 365 L 322.05 365 Z"/><path d=" M 330.45 338.79 L 335.16 338.79 L 335.16 354.19 C 335.16 358.84 337.56 361.53 341.48 361.53 C 345.4 361.53 347.81 358.84 347.81 354.19 L 347.81 338.79 L 352.57 338.79 L 352.57 354.25 C 352.57 361.36 348.04 365.67 341.48 365.67 C 334.92 365.67 330.48 361.36 330.48 354.25 Z"/><path d=" M 359.68 324.68 L 364.44 324.68 L 364.44 365 L 359.68 365 Z"/><path d=" M 369.09 338.79 L 374.58 338.79 L 374.58 328.79 L 379.23 328.79 L 379.23 338.79 L 389.59 338.79 L 389.59 342.88 L 379.23 342.88 L 379.23 354.64 C 379.23 359.34 381.3 361.3 384.71 361.3 C 386.571 361.206 388.372 360.608 389.92 359.57 L 391.71 363.04 C 389.538 364.707 386.887 365.629 384.15 365.67 C 377.71 365.67 374.58 360.97 374.58 355.76 L 374.58 342.88 L 369.09 342.88 Z"/><path d=" M 414.17 361.41 C 412.181 364.009 409.102 365.541 405.83 365.56 C 398.88 365.56 393.83 360.63 393.83 351.78 C 393.83 343.94 398.83 338.34 405.83 338.34 C 408.995 338.27 412.03 339.602 414.12 341.98 L 414.12 338.79 L 418.82 338.79 L 418.82 365 L 414.12 365 Z M 401.57 326.47 C 403.553 326.464 405.164 328.067 405.17 330.05 C 405.176 332.033 403.573 333.644 401.59 333.65 C 399.607 333.655 397.996 332.053 397.99 330.07 C 397.99 330.063 397.99 330.057 397.99 330.05 C 397.962 328.101 399.52 326.498 401.469 326.47 C 401.503 326.47 401.536 326.47 401.57 326.47 Z M 414.34 352 C 414.34 344.89 410.34 342.37 406.27 342.37 C 401.4 342.37 398.55 346.46 398.55 352 C 398.55 357.71 401.55 361.52 406.44 361.52 C 411.33 361.52 414.34 357.38 414.34 352 Z M 413.22 326.52 C 415.203 326.52 416.81 328.127 416.81 330.11 C 416.81 332.093 415.203 333.7 413.22 333.7 C 411.237 333.7 409.63 332.093 409.63 330.11 C 409.63 330.107 409.63 330.103 409.63 330.1 C 409.574 328.151 411.109 326.526 413.058 326.471 C 413.112 326.469 413.166 326.469 413.22 326.47 Z"/><path d=" M 423.52 338.79 L 429 338.79 L 429 328.79 L 433.65 328.79 L 433.65 338.79 L 444 338.79 L 444 342.88 L 433.66 342.88 L 433.66 354.64 C 433.66 359.34 435.73 361.3 439.15 361.3 C 441.008 361.204 442.805 360.607 444.35 359.57 L 446.15 363.04 C 443.974 364.706 441.32 365.628 438.58 365.67 C 432.15 365.67 429.01 360.97 429.01 355.76 L 429.01 342.88 L 423.52 342.88 Z"/><path d=" M 460.14 338.79 L 465.63 338.79 L 465.63 335.94 C 465.63 329.44 469.55 324.01 476.5 324.01 C 479.447 323.928 482.32 324.944 484.56 326.86 L 482.21 330.28 C 480.594 328.933 478.543 328.222 476.44 328.28 C 472.74 328.28 470.39 331.28 470.39 335.84 L 470.39 338.84 L 480.3 338.84 L 480.3 342.93 L 470.39 342.93 L 470.39 365 L 465.63 365 L 465.63 342.88 L 460.14 342.88 Z"/><path d=" M 485.68 338.79 L 490.38 338.79 L 490.38 354.19 C 490.38 358.84 492.79 361.53 496.71 361.53 C 500.63 361.53 503.04 358.84 503.04 354.19 L 503.04 338.79 L 507.8 338.79 L 507.8 354.25 C 507.8 361.36 503.26 365.67 496.71 365.67 C 490.16 365.67 485.71 361.36 485.71 354.25 Z M 490.89 326.47 C 492.873 326.47 494.48 328.077 494.48 330.06 C 494.48 332.043 492.873 333.65 490.89 333.65 C 488.907 333.65 487.3 332.043 487.3 330.06 C 487.3 330.057 487.3 330.053 487.3 330.05 C 487.272 328.101 488.83 326.498 490.779 326.47 C 490.816 326.469 490.853 326.469 490.89 326.47 Z M 502.54 326.47 C 504.523 326.47 506.13 328.077 506.13 330.06 C 506.13 332.043 504.523 333.65 502.54 333.65 C 500.557 333.65 498.95 332.043 498.95 330.06 C 498.95 330.057 498.95 330.053 498.95 330.05 C 498.928 328.095 500.494 326.492 502.449 326.47 C 502.48 326.47 502.51 326.47 502.54 326.47 Z"/><path d=" M 514.91 338.79 L 519.67 338.79 L 519.67 343.89 C 521.41 340.64 523.37 338.34 527.18 338.34 C 528.085 338.328 528.987 338.443 529.86 338.68 L 529.08 343.05 C 528.268 342.894 527.446 342.8 526.62 342.77 C 522.86 342.77 519.62 346.41 519.62 350.83 L 519.62 365 L 514.86 365 Z"/><path d=" M 548 327.82 L 548.28 327.82 L 564.68 351.61 L 581.09 327.82 L 581.37 327.82 L 581.37 365 L 576.61 365 L 576.61 342.09 L 564.68 359.17 L 552.77 342 L 552.77 365 L 548 365 Z"/><path d=" M 605.8 361.41 C 603.808 364.01 600.725 365.542 597.45 365.56 C 590.51 365.56 585.45 360.63 585.45 351.78 C 585.45 343.94 590.45 338.34 597.45 338.34 C 600.639 338.259 603.698 339.601 605.8 342 L 605.8 338.81 L 610.5 338.81 L 610.5 365 L 605.8 365 Z M 606 352 C 606 344.89 602 342.37 597.93 342.37 C 593.06 342.37 590.2 346.46 590.2 352 C 590.2 357.71 593.2 361.52 598.1 361.52 C 603 361.52 606 357.38 606 352 Z"/><path d=" M 615.15 338.79 L 620.64 338.79 L 620.64 328.79 L 625.29 328.79 L 625.29 338.79 L 635.65 338.79 L 635.65 342.88 L 625.29 342.88 L 625.29 354.64 C 625.29 359.34 627.36 361.3 630.77 361.3 C 632.631 361.206 634.432 360.608 635.98 359.57 L 637.77 363.04 C 635.598 364.707 632.947 365.629 630.21 365.67 C 623.77 365.67 620.64 360.97 620.64 355.76 L 620.64 342.88 L 615.15 342.88 Z"/><path d=" M 641.3 324.68 L 646 324.68 L 646 343.1 C 647.52 340.58 649.92 338.1 654.24 338.1 C 659.72 338.1 663.64 341.29 663.64 347.1 L 663.64 365 L 658.94 365 L 658.94 348.37 C 658.94 344.28 656.37 342.37 653.06 342.37 C 649.75 342.37 646.17 344.78 646 350.89 L 646 365 L 641.3 365 Z"/><path d=" M 673.44 353.18 C 674 357.77 677.03 361.41 682.57 361.41 C 685.455 361.368 688.226 360.272 690.36 358.33 L 692.43 361.58 C 690.24 363.26 687.11 365.67 682.07 365.67 C 674.23 365.67 668.8 359.85 668.8 351.67 C 668.8 343.67 673.95 338.12 681.28 338.12 C 689.46 338.12 692.76 344.73 692.76 351.5 L 692.76 353.18 Z M 673.56 349.32 L 688.12 349.32 C 688.06 345.62 685.99 341.93 681.28 341.93 C 677 341.93 674.28 345 673.56 349.32 Z"/><path d=" M 699.26 338.79 L 704 338.79 L 704 343.05 C 705.4 340.58 707.7 338.12 711.79 338.12 C 716.16 338.12 719.51 340.12 720.69 343.89 C 722.09 341.14 724.39 338.12 728.98 338.12 C 734.47 338.12 738.39 341.31 738.39 347.12 L 738.39 365 L 733.68 365 L 733.68 348.37 C 733.68 344.28 731.11 342.37 727.8 342.37 C 724.49 342.37 721.2 344.9 721.2 351.37 L 721.2 365 L 716.49 365 L 716.49 348.37 C 716.49 344.28 713.92 342.37 710.61 342.37 C 707.3 342.37 704.17 344.78 704 350.89 L 704 365 L 699.3 365 Z"/><path d=" M 763.83 361.41 C 761.837 364.009 758.755 365.541 755.48 365.56 C 748.54 365.56 743.48 360.63 743.48 351.78 C 743.48 343.94 748.48 338.34 755.48 338.34 C 758.645 338.272 761.678 339.604 763.77 341.98 L 763.77 338.79 L 768.47 338.79 L 768.47 365 L 763.77 365 Z M 764 352 C 764 344.89 760 342.37 755.93 342.37 C 751.06 342.37 748.2 346.46 748.2 352 C 748.2 357.71 751.2 361.52 756.1 361.52 C 761 361.52 764 357.38 764 352 Z"/><path d=" M 773.18 338.79 L 778.67 338.79 L 778.67 328.79 L 783.31 328.79 L 783.31 338.79 L 793.67 338.79 L 793.67 342.88 L 783.31 342.88 L 783.31 354.64 C 783.31 359.34 785.39 361.3 788.8 361.3 C 790.661 361.206 792.462 360.608 794.01 359.57 L 795.8 363 C 793.628 364.667 790.977 365.589 788.24 365.63 C 781.8 365.63 778.67 360.93 778.67 355.72 L 778.67 342.88 L 773.18 342.88 Z"/><path d=" M 799.22 330.05 C 799.175 328.118 800.706 326.515 802.638 326.47 C 802.692 326.469 802.746 326.469 802.8 326.47 C 804.783 326.464 806.394 328.067 806.4 330.05 C 806.405 332.033 804.803 333.644 802.82 333.65 C 800.837 333.655 799.225 332.053 799.22 330.07 C 799.22 330.063 799.22 330.057 799.22 330.05 Z M 800.45 338.79 L 805.21 338.79 L 805.21 365 L 800.45 365 Z"/><path d=" M 817.75 351.84 L 817.75 365 L 813.05 365 L 813.05 324.68 L 817.75 324.68 L 817.75 349.37 L 827.75 338.79 L 833.4 338.79 L 822.51 350.1 L 835.79 365 L 830 365 Z"/><rect x="22.33" y="328.68" width="170.08" height="36.46" fill="#DCAA41"/></svg>